<svg width="1080" height="1080" viewBox="0 0 1080 1080" fill="none" xmlns="http://www.w3.org/2000/svg">
<rect width="1080" height="1080" fill="#009E5B"/>
<path fill-rule="evenodd" clip-rule="evenodd" d="M553.684 539.315L532.42 675.63H574.95L553.684 539.315Z" fill="#E8FFFC"/>
<path fill-rule="evenodd" clip-rule="evenodd" d="M553.684 539.315L417.37 518.05V560.58L553.684 539.315Z" fill="#E8FFFC"/>
<path fill-rule="evenodd" clip-rule="evenodd" d="M553.686 539.315L503.944 410.63L467.112 431.895L553.686 539.315Z" fill="#E8FFFC"/>
<path fill-rule="evenodd" clip-rule="evenodd" d="M553.686 539.316L682.37 489.574L661.105 452.742L553.686 539.316Z" fill="#E8FFFC"/>
<path fill-rule="evenodd" clip-rule="evenodd" d="M553.686 539.315L446.266 452.741L425.001 489.574L553.686 539.315Z" fill="#E8FFFC"/>
<path fill-rule="evenodd" clip-rule="evenodd" d="M553.686 539.316L640.259 431.896L603.427 410.631L553.686 539.316Z" fill="#E8FFFC"/>
<path fill-rule="evenodd" clip-rule="evenodd" d="M553.686 539.315L574.95 403L532.42 403L553.686 539.315Z" fill="#E8FFFC"/>
<path fill-rule="evenodd" clip-rule="evenodd" d="M553.686 539.316L690 560.58V518.05L553.686 539.316Z" fill="#E8FFFC"/>
<path fill-rule="evenodd" clip-rule="evenodd" d="M553.684 539.315L603.426 668L640.259 646.735L553.684 539.315Z" fill="#E8FFFC"/>
<path fill-rule="evenodd" clip-rule="evenodd" d="M553.684 539.315L425.001 589.056L446.266 625.889L553.684 539.315Z" fill="#E8FFFC"/>
<path fill-rule="evenodd" clip-rule="evenodd" d="M553.684 539.315L607.395 582.602L661.105 625.889L682.37 589.057L553.684 539.315Z" fill="#E8FFFC"/>
<path fill-rule="evenodd" clip-rule="evenodd" d="M553.684 539.315L467.111 646.735L503.944 668L553.684 539.315Z" fill="#E8FFFC"/>
<path fill-rule="evenodd" clip-rule="evenodd" d="M553.606 441.168L642.405 594.972H464.808L553.606 441.168Z" fill="#009E5B"/>
<path d="M553.606 559.279C562.232 559.279 570.228 557.148 576.857 553.495C583.05 550.083 588.035 545.359 591.199 539.83C588.035 534.301 583.05 529.577 576.857 526.164C570.228 522.512 562.232 520.381 553.606 520.381C544.98 520.381 536.984 522.512 530.355 526.164C524.163 529.577 519.177 534.301 516.013 539.83C519.177 545.359 524.163 550.083 530.355 553.495C536.984 557.148 544.98 559.279 553.606 559.279ZM580.08 559.366C572.49 563.548 563.383 565.988 553.606 565.988C543.829 565.988 534.722 563.548 527.131 559.366C519.221 555.006 512.943 548.734 509.237 541.324L508.49 539.83L509.237 538.336C512.943 530.927 519.221 524.653 527.131 520.294C534.722 516.112 543.829 513.672 553.606 513.672C563.383 513.672 572.49 516.112 580.08 520.294C587.992 524.653 594.269 530.927 597.975 538.336L598.722 539.83L597.975 541.324C594.269 548.734 587.992 555.006 580.08 559.366Z" fill="#E8FFFC"/>
<path fill-rule="evenodd" clip-rule="evenodd" d="M553.606 524.818C561.897 524.818 568.618 531.539 568.618 539.83C568.618 548.121 561.897 554.842 553.606 554.842C545.315 554.842 538.594 548.121 538.594 539.83C538.594 531.539 545.315 524.818 553.606 524.818Z" fill="#E8FFFC"/>
<path fill-rule="evenodd" clip-rule="evenodd" d="M560.655 526.669C563.596 526.669 565.98 529.053 565.98 531.994C565.98 534.935 563.596 537.319 560.655 537.319C557.713 537.319 555.33 534.935 555.33 531.994C555.33 529.053 557.713 526.669 560.655 526.669Z" fill="#009E5B"/>
<path fill-rule="evenodd" clip-rule="evenodd" d="M553.606 421.539L659.404 604.787H447.808L553.606 421.539ZM642.405 594.972L553.606 441.168L464.808 594.972H642.405Z" fill="#E8FFFC"/>
<path d="M337.52 675.057V561.316H230.998V675.057H165V403H230.998V505.982H337.52V403H403.518V675.057H337.52Z" fill="#E8FFFC"/>
<path d="M915 487.345C915 503.228 912.04 516.678 906.123 527.693C900.205 538.452 892.229 547.162 882.194 553.823C872.159 560.483 860.581 565.351 847.458 568.425C834.336 571.499 820.699 573.036 806.548 573.036H773.742V675.634H707.744V403.576H808.091C823.014 403.576 836.909 405.113 849.774 408.188C862.897 411.005 874.216 415.745 883.738 422.405C893.514 428.81 901.106 437.391 906.509 448.151C912.169 458.654 915 471.719 915 487.345ZM849.002 487.73C849.002 481.325 847.715 476.074 845.143 471.975C842.569 467.876 839.095 464.674 834.722 462.368C830.347 460.063 825.33 458.526 819.67 457.757C814.267 456.989 808.605 456.605 802.688 456.605H773.742V520.776H801.53C807.705 520.776 813.622 520.264 819.284 519.239C824.944 518.215 829.961 516.421 834.336 513.86C838.968 511.298 842.569 507.967 845.143 503.869C847.715 499.514 849.002 494.134 849.002 487.73Z" fill="#E8FFFC"/>
</svg>
