<svg width="399" height="139" viewBox="0 0 399 139" fill="none" xmlns="http://www.w3.org/2000/svg">
<path d="M0.0673854 77.5105H19.5014C22.9224 77.5105 26.0077 77.8179 28.7557 78.4336C31.5037 79.0492 33.8593 80.0563 35.8226 81.4546C37.7859 82.853 39.3003 84.6435 40.3657 86.8253C41.4311 89.0072 41.9641 91.6369 41.9641 94.7136C41.9641 98.0146 41.3469 100.784 40.1133 103.021C38.8796 105.259 37.197 107.078 35.0654 108.476C32.9905 109.819 30.5507 110.797 27.7462 111.413C24.9416 112.029 21.9694 112.336 18.8283 112.336H10.6678L10.6678 136.924H0.0673828L0.0673854 77.5105ZM18.0712 103.441C19.8096 103.441 21.4647 103.329 23.0349 103.105C24.6051 102.825 26.0077 102.378 27.2413 101.763C28.475 101.091 29.457 100.196 30.1859 99.0773C30.9148 97.9581 31.2796 96.5041 31.2796 94.7136C31.2796 92.9795 30.9148 91.5804 30.1859 90.5177C29.457 89.3985 28.475 88.5319 27.2413 87.9163C26.0635 87.3006 24.6892 86.9093 23.119 86.7414C21.6046 86.5179 20.0345 86.4058 18.4077 86.4058H10.6678V103.441H18.0712ZM51.4165 77.5105H72.1125C74.9163 77.5105 77.6368 77.818 80.2731 78.4336C82.9087 78.9928 85.2368 79.9441 87.2559 81.2868C89.3309 82.6295 90.9851 84.3917 92.2195 86.5736C93.4532 88.7554 94.0704 91.4126 94.0704 94.5457C94.0704 98.8538 92.836 102.378 90.3687 105.119C87.9565 107.805 84.6478 109.623 80.4413 110.574L96.3419 136.924H83.5542L69.7568 111.749H62.0169V136.924H51.4165L51.4165 77.5105ZM70.6823 103.105C72.1966 103.105 73.7109 102.993 75.2253 102.77C76.7396 102.546 78.0857 102.127 79.2635 101.511C80.4972 100.895 81.5068 100.029 82.2922 98.9094C83.0769 97.7346 83.47 96.2523 83.47 94.4618C83.47 92.8392 83.1052 91.5247 82.3763 90.5177C81.6467 89.455 80.7213 88.6158 79.6 88.0002C78.478 87.3845 77.1878 86.965 75.7301 86.7414C74.3274 86.5179 72.9538 86.4058 71.6077 86.4058H62.0169L62.0169 103.105H70.6823ZM101.465 107.049C101.465 102.294 102.251 98.0146 103.821 94.2101C105.448 90.3499 107.664 87.0771 110.467 84.3917C113.328 81.7064 116.693 79.6367 120.563 78.1819C124.49 76.727 128.752 76 133.351 76C138.006 76 142.297 76.727 146.223 78.1819C150.149 79.6367 153.542 81.7064 156.402 84.3917C159.263 87.0771 161.478 90.3499 163.049 94.2101C164.675 98.0146 165.488 102.294 165.488 107.049C165.488 111.693 164.675 115.945 163.049 119.805C161.478 123.609 159.263 126.91 156.402 129.707C153.542 132.448 150.149 134.603 146.223 136.169C142.297 137.679 138.006 138.435 133.351 138.435C128.752 138.435 124.49 137.679 120.563 136.169C116.693 134.603 113.328 132.448 110.467 129.707C107.664 126.91 105.448 123.609 103.821 119.805C102.251 115.945 101.465 111.693 101.465 107.049ZM112.991 107.049C112.991 110.238 113.468 113.175 114.421 115.861C115.431 118.49 116.834 120.784 118.628 122.742C120.479 124.7 122.639 126.238 125.106 127.357C127.63 128.42 130.406 128.952 133.435 128.952C136.464 128.952 139.24 128.42 141.764 127.357C144.288 126.238 146.447 124.7 148.242 122.742C150.093 120.784 151.495 118.49 152.448 115.861C153.458 113.175 153.963 110.238 153.963 107.049C153.963 103.973 153.458 101.12 152.448 98.4898C151.495 95.8602 150.121 93.567 148.326 91.6086C146.532 89.6503 144.372 88.1123 141.848 86.9932C139.324 85.874 136.52 85.3148 133.435 85.3148C130.35 85.3148 127.546 85.874 125.022 86.9932C122.555 88.1123 120.423 89.6503 118.628 91.6086C116.834 93.567 115.431 95.8602 114.421 98.4898C113.468 101.12 112.991 103.973 112.991 107.049ZM175.722 77.5105H196.838C200.708 77.5105 204.607 78.014 208.532 79.021C212.458 80.028 215.992 81.7064 219.133 84.0561C222.274 86.3501 224.825 89.3986 226.789 93.2031C228.752 96.9511 229.733 101.623 229.733 107.217C229.733 112.42 228.752 116.896 226.789 120.644C224.825 124.392 222.274 127.47 219.133 129.875C215.992 132.28 212.458 134.071 208.532 135.246C204.607 136.365 200.708 136.924 196.838 136.924H175.722V77.5105ZM195.156 127.693C197.904 127.693 200.652 127.386 203.4 126.77C206.148 126.099 208.616 125.008 210.804 123.497C213.047 121.931 214.87 119.833 216.272 117.203C217.674 114.574 218.376 111.245 218.376 107.217C218.376 102.966 217.674 99.4969 216.272 96.8115C214.87 94.1262 213.047 92.0282 210.804 90.5177C208.616 89.0072 206.148 87.972 203.4 87.4128C200.652 86.8536 197.904 86.5736 195.156 86.5736H186.322V127.693H195.156ZM287.419 115.105C287.419 118.686 286.802 121.931 285.568 124.84C284.334 127.693 282.652 130.127 280.52 132.141C278.389 134.155 275.865 135.721 272.948 136.84C270.032 137.903 266.863 138.435 263.442 138.435C260.021 138.435 256.851 137.903 253.935 136.84C251.019 135.721 248.467 134.155 246.279 132.141C244.148 130.127 242.465 127.693 241.231 124.84C240.054 121.931 239.465 118.686 239.465 115.105V77.5105H250.065V114.686C250.065 116.42 250.289 118.155 250.738 119.889C251.187 121.567 251.916 123.078 252.925 124.42C253.991 125.763 255.365 126.854 257.048 127.693C258.786 128.532 260.918 128.952 263.442 128.952C265.966 128.952 268.069 128.532 269.751 127.693C271.49 126.854 272.864 125.763 273.874 124.42C274.939 123.078 275.696 121.567 276.145 119.889C276.594 118.155 276.818 116.42 276.818 114.686V77.5105H287.419V115.105ZM343.017 91.4408C341.447 89.3146 339.4 87.7767 336.876 86.8253C334.352 85.8183 331.884 85.3148 329.473 85.3148C326.388 85.3148 323.583 85.874 321.059 86.9932C318.535 88.1123 316.348 89.6503 314.497 91.6086C312.703 93.567 311.3 95.8602 310.291 98.4899C309.338 101.12 308.86 103.973 308.86 107.049C308.86 110.294 309.338 113.259 310.291 115.945C311.244 118.63 312.59 120.951 314.329 122.91C316.124 124.812 318.255 126.295 320.723 127.357C323.191 128.42 325.967 128.952 329.052 128.952C332.249 128.952 335.081 128.336 337.549 127.106C340.017 125.819 342.008 124.14 343.522 122.071L352.019 128.029C349.383 131.33 346.158 133.903 342.344 135.749C338.531 137.54 334.072 138.435 328.968 138.435C324.313 138.435 320.022 137.679 316.096 136.169C312.226 134.603 308.889 132.448 306.084 129.707C303.28 126.91 301.093 123.609 299.522 119.805C297.952 115.945 297.166 111.693 297.166 107.049C297.166 102.294 297.98 98.0146 299.606 94.2101C301.289 90.3499 303.56 87.0771 306.421 84.3917C309.338 81.7064 312.759 79.6367 316.685 78.1819C320.611 76.727 324.873 76 329.473 76C331.379 76 333.371 76.1958 335.446 76.5874C337.521 76.9231 339.512 77.4823 341.419 78.2658C343.326 78.9928 345.121 79.9159 346.803 81.035C348.486 82.1542 349.916 83.4969 351.094 85.0631L343.017 91.4408ZM370.143 86.7414H351.887V77.5105L399 77.5105V86.7414L380.744 86.7414V136.924H370.143V86.7414Z" fill="white"/>
<path d="M279.778 8.74083L282.609 13.5469L283.172 10.0079L279.778 4.24555L276.412 9.95822L276.975 13.4972L279.778 8.74083Z" fill="white"/>
<path d="M281.099 34.5209L279.796 31.2173L280.355 34.7269C280.613 34.6849 280.863 34.6152 281.099 34.5209Z" fill="white"/>
<path fill-rule="evenodd" clip-rule="evenodd" d="M276.975 13.4972L276.412 9.95822L279.778 4.24555L283.172 10.0079L282.609 13.5469L285.099 17.7731L287.5 21.8492L288.82 24.0898L290.607 27.1222L291.927 29.3627L294.328 33.4389L296.818 37.6653L300.528 43.9632H295.934H290.278H284.823H281.825H277.767H274.769H269.314H263.658H259.027L262.727 37.6832L265.224 33.4451L267.632 29.3576L268.955 27.1107L270.747 24.07L272.07 21.8231L274.479 17.7356L276.975 13.4972ZM283.172 10.0079L284.765 8.52574e-07L274.827 0L276.412 9.95822L273.417 15.043L268.172 1.74738L259.565 6.61727L270.527 19.9469L268.939 22.6425L254.694 11.3911L249.725 19.826L266.79 26.2906L265.202 28.9862L247.942 26.3474V36.0872L262.313 33.8901L259.318 38.9746L249.725 42.6084L254.694 51.0433L260.812 46.2108H267.465L259.565 55.8172L268.172 60.6871L273.882 46.2108H277.409L274.827 62.4345H284.765L282.183 46.2108H285.71L291.42 60.6871L300.027 55.8173L292.127 46.2108H298.78L304.898 51.0434L309.867 42.6085L300.227 38.9567L297.239 33.8839L311.651 36.0872V26.3474L294.356 28.9913L292.772 26.302L309.868 19.8261L304.898 11.3912L290.628 22.6624L289.043 19.973L300.027 6.61733L291.42 1.74744L286.161 15.0805L283.172 10.0079ZM279.778 25.3448C279.471 25.3448 279.167 25.3549 278.866 25.3746C278.42 25.404 277.981 25.4546 277.551 25.5254C276.85 25.6406 276.173 25.8091 275.526 26.0254C274.999 26.2016 274.492 26.4096 274.009 26.6463C273.867 26.7155 273.728 26.7872 273.591 26.8612C272.903 27.2329 272.268 27.6652 271.697 28.1491C271.125 28.6335 270.618 29.1696 270.186 29.7481C269.89 30.1441 269.63 30.5601 269.409 30.993L269.235 31.3351L269.409 31.6773C269.591 32.0335 269.799 32.3783 270.032 32.71C270.449 33.3043 270.945 33.8564 271.507 34.357L273.177 33.7245C272.656 33.3389 272.189 32.9087 271.786 32.4418C271.485 32.0924 271.219 31.7224 270.993 31.3351C271.264 30.8704 271.593 30.4305 271.972 30.0211C272.388 29.5719 272.864 29.1594 273.392 28.7914C273.693 28.5812 274.011 28.3854 274.344 28.2056C274.673 28.0283 275.015 27.8667 275.371 27.7221C275.76 27.5636 276.165 27.4255 276.582 27.3095C277.081 27.1712 277.598 27.0643 278.129 26.9919C278.451 26.9482 278.777 26.917 279.109 26.8991C279.33 26.8872 279.553 26.8811 279.778 26.8811C280.015 26.8811 280.25 26.8879 280.483 26.9012C280.814 26.9201 281.14 26.9521 281.461 26.9967C281.991 27.0705 282.506 27.1785 283.003 27.3178C283.419 27.4345 283.821 27.5731 284.209 27.7319C284.556 27.874 284.89 28.0323 285.211 28.2056C285.549 28.388 285.871 28.5868 286.176 28.8004C286.701 29.1675 287.174 29.5785 287.588 30.026C287.965 30.434 288.292 30.8723 288.562 31.3351C288.337 31.7206 288.073 32.0889 287.773 32.4368C287.372 32.902 286.908 33.3307 286.391 33.7153C286.023 33.9883 285.629 34.239 285.211 34.4647C284.951 34.6053 284.681 34.7361 284.404 34.8564C284.005 35.029 283.59 35.1799 283.16 35.3073C282.642 35.4605 282.104 35.5796 281.549 35.661C281.212 35.7104 280.869 35.746 280.52 35.7669C280.275 35.7817 280.028 35.7892 279.778 35.7892C279.54 35.7892 279.305 35.7824 279.071 35.7691C278.723 35.7491 278.379 35.7145 278.041 35.666C277.484 35.586 276.944 35.4682 276.425 35.3159C275.993 35.1893 275.576 35.0388 275.176 34.8666L273.826 35.9325C274.318 36.1841 274.836 36.4054 275.375 36.5933C276.041 36.8252 276.739 37.0063 277.464 37.1303C277.91 37.2067 278.365 37.2614 278.829 37.2932C279.142 37.3146 279.458 37.3255 279.778 37.3255C280.11 37.3255 280.438 37.3137 280.763 37.2906C281.226 37.2577 281.681 37.2018 282.126 37.1244C282.848 36.9987 283.545 36.8164 284.209 36.5833C284.746 36.3947 285.262 36.1729 285.752 35.9211C285.823 35.8844 285.894 35.847 285.964 35.809C286.734 35.3934 287.437 34.9019 288.059 34.3473C288.618 33.8479 289.112 33.2973 289.527 32.7049C289.758 32.3748 289.965 32.0317 290.146 31.6773L290.32 31.3351L290.146 30.993C289.926 30.562 289.667 30.1477 289.373 29.7531C288.944 29.1765 288.439 28.6421 287.87 28.1588C287.296 27.671 286.657 27.2353 285.964 26.8612C285.835 26.7912 285.703 26.7232 285.569 26.6575C285.088 26.4204 284.583 26.212 284.058 26.0351C283.413 25.8177 282.738 25.6479 282.039 25.5311C281.61 25.4593 281.171 25.4076 280.726 25.3771C280.413 25.3557 280.097 25.3448 279.778 25.3448ZM283.286 31.3351C283.286 31.1157 283.265 30.9011 283.225 30.6931C283.178 30.452 283.106 30.2198 283.011 29.9994C282.915 29.7771 282.797 29.5668 282.657 29.3712C282.665 29.4266 282.669 29.4831 282.669 29.5406C282.669 29.7856 282.596 30.0137 282.469 30.2048C282.247 30.5391 281.862 30.7601 281.425 30.7601C281.315 30.7601 281.209 30.7463 281.108 30.7203C280.952 30.68 280.807 30.6106 280.681 30.5183C280.616 30.4709 280.556 30.4174 280.502 30.3588C280.407 30.2555 280.329 30.1361 280.274 30.0053C280.214 29.8621 280.181 29.7052 280.181 29.5406C280.181 29.0539 280.471 28.6338 280.892 28.4382C281.054 28.3631 281.234 28.3211 281.425 28.3211C281.435 28.3211 281.446 28.3212 281.456 28.3215L281.468 28.3218C281.324 28.2441 281.174 28.176 281.018 28.1185C280.795 28.0357 280.561 27.9746 280.318 27.9379C280.142 27.9112 279.961 27.8973 279.778 27.8973C279.606 27.8973 279.438 27.9093 279.273 27.9326C279.03 27.967 278.794 28.0259 278.569 28.1067C278.235 28.2269 277.925 28.3956 277.647 28.6039C277.452 28.7502 277.273 28.9161 277.113 29.0985C276.882 29.363 276.691 29.6624 276.549 29.9874C276.453 30.2098 276.379 30.4442 276.332 30.6877C276.291 30.8973 276.27 31.1138 276.27 31.3351C276.27 31.4764 276.278 31.6157 276.295 31.7525C276.326 32.0036 276.385 32.2464 276.468 32.4779C276.592 32.8237 276.772 33.1442 276.995 33.4293C277.152 33.6294 277.331 33.8122 277.529 33.974C277.814 34.2074 278.137 34.3973 278.488 34.5334C278.726 34.6256 278.976 34.693 279.236 34.7325C279.413 34.7593 279.594 34.7732 279.778 34.7732C279.974 34.7732 280.167 34.7573 280.355 34.7269L279.796 31.2173L281.099 34.5209C281.447 34.3822 281.767 34.1905 282.048 33.9559C282.243 33.7938 282.419 33.6111 282.574 33.4114C282.794 33.1274 282.97 32.8089 283.092 32.4657C283.173 32.2362 283.231 31.9957 283.261 31.747C283.277 31.6119 283.286 31.4745 283.286 31.3351Z" fill="white"/>
<path d="M273.591 35.809C273.669 35.851 273.747 35.8921 273.826 35.9325L275.176 34.8666C274.89 34.7435 274.612 34.6093 274.344 34.4647C273.931 34.2415 273.541 33.9939 273.177 33.7245L271.507 34.357C272.126 34.9077 272.826 35.3959 273.591 35.809Z" fill="white"/>
<path d="M16.8744 1.6173L27.4748 1.6173V25.6177L55.3217 25.6177L55.3218 1.61731L65.9221 1.61731V61.0308L55.3217 61.0308V34.6807H27.4748L27.4748 61.0308H16.8744L16.8744 1.6173Z" fill="white"/>
<path d="M79.0678 1.61731L89.6682 1.6173V61.0308H79.0678V1.61731Z" fill="white"/>
<path d="M154.972 57.9259C151.944 59.3805 148.607 60.4993 144.961 61.2826C141.371 62.1217 137.221 62.5413 132.51 62.5413C127.687 62.5413 123.284 61.7861 119.301 60.2756C115.319 58.7091 111.898 56.5552 109.037 53.8139C106.177 51.0166 103.934 47.7159 102.307 43.9117C100.737 40.0515 99.9512 35.7997 99.9512 31.1562C99.9512 26.4009 100.765 22.1211 102.391 18.3169C104.074 14.4567 106.345 11.1839 109.206 8.49853C112.123 5.81317 115.544 3.74321 119.469 2.28864C123.396 0.834069 127.658 0.10679 132.257 0.10679C137.025 0.10679 141.371 0.806103 145.297 2.20472C149.28 3.5474 152.477 5.33763 154.888 7.57544L147.569 15.4637C146.054 13.7853 143.924 12.3587 141.175 11.1839C138.483 10.009 135.538 9.42163 132.341 9.42163C129.201 9.42163 126.34 9.98105 123.76 11.1C121.236 12.2189 119.077 13.7573 117.282 15.7154C115.488 17.6735 114.085 19.9672 113.075 22.5967C112.123 25.2261 111.645 28.0793 111.645 31.1562C111.645 34.3451 112.123 37.2822 113.075 39.9675C114.085 42.597 115.488 44.8907 117.282 46.8488C119.133 48.8069 121.349 50.3453 123.928 51.4642C126.565 52.5272 129.537 53.0587 132.846 53.0587C137.389 53.0587 141.343 52.3593 144.708 50.9607V35.8556L132.173 35.8556V27.1282H154.972V57.9259Z" fill="white"/>
<path d="M167.881 1.6173L178.481 1.6173V25.6177H206.328V1.6173L216.929 1.6173V61.0308H206.328V34.6808H178.481V61.0308H167.881V1.6173Z" fill="white"/>
<path d="M322.503 1.6173L336.552 1.6173L364.231 46.0935H364.4V1.6173L375 1.6173V61.0308H361.539L333.271 15.128H333.103V61.0308H322.503V1.6173Z" fill="white"/>
</svg>
