<svg width="112" height="40" viewBox="0 0 112 40" fill="none" xmlns="http://www.w3.org/2000/svg">
<path d="M58.0318 22.9288C58.1915 22.9288 58.3498 22.924 58.5064 22.9146C58.729 22.9011 58.9483 22.8783 59.1636 22.8467C59.5184 22.7945 59.8624 22.7182 60.193 22.6201C60.4678 22.5385 60.7333 22.4418 60.9879 22.3312C61.1654 22.2541 61.3376 22.1703 61.504 22.0802C61.771 21.9357 62.023 21.775 62.2578 21.6002C62.5886 21.3538 62.8852 21.0791 63.1413 20.7811C63.3329 20.5581 63.5019 20.3222 63.6457 20.0753C63.473 19.7787 63.2639 19.4979 63.0229 19.2366C62.7586 18.9499 62.456 18.6865 62.1209 18.4513C61.9258 18.3145 61.7198 18.1871 61.504 18.0703C61.299 17.9593 61.0852 17.8579 60.8636 17.7668C60.6159 17.6651 60.3586 17.5763 60.0929 17.5015C59.7755 17.4122 59.4463 17.343 59.1074 17.2958C58.9025 17.2672 58.6941 17.2467 58.4827 17.2346C58.3339 17.2261 58.1835 17.2217 58.0318 17.2217C57.8881 17.2217 57.7456 17.2256 57.6044 17.2333C57.3927 17.2448 57.1839 17.2647 56.9785 17.2927C56.6386 17.3391 56.3083 17.4076 55.9899 17.4962C55.723 17.5705 55.4644 17.659 55.2156 17.7605C54.9885 17.8532 54.7695 17.9567 54.5597 18.0703C54.347 18.1855 54.1437 18.3109 53.9511 18.4456C53.614 18.6814 53.3094 18.9456 53.0436 19.2334C52.8014 19.4957 52.5913 19.7775 52.4179 20.0753C52.5624 20.3234 52.7323 20.5604 52.9251 20.7842C53.1827 21.0834 53.481 21.359 53.8138 21.606C54.0463 21.7786 54.2957 21.9373 54.5597 22.0802C54.7309 22.1729 54.9081 22.2589 55.0909 22.3377C55.3468 22.4481 55.6135 22.5445 55.8895 22.6256C56.2212 22.7231 56.5664 22.7986 56.9222 22.8499C57.1379 22.881 57.3576 22.9031 57.5805 22.9159C57.7295 22.9245 57.88 22.9288 58.0318 22.9288ZM61.9853 22.9415C61.9404 22.9659 61.8951 22.9898 61.8494 23.0133C61.5364 23.1746 61.2069 23.3167 60.8636 23.4376C60.4394 23.5869 59.9941 23.7037 59.5325 23.7842C59.2479 23.8338 58.9572 23.8696 58.6614 23.8907C58.4539 23.9055 58.2439 23.9131 58.0318 23.9131C57.8276 23.9131 57.6254 23.906 57.4255 23.8923C57.1293 23.872 56.8381 23.8369 56.5531 23.788C56.0903 23.7085 55.6437 23.5926 55.2182 23.444C54.8736 23.3236 54.5428 23.1818 54.2284 23.0206C54.1779 22.9948 54.1279 22.9684 54.0783 22.9415C53.5894 22.6768 53.1423 22.364 52.7468 22.0113C52.3874 21.6906 52.0706 21.3368 51.8041 20.9561C51.6553 20.7436 51.5222 20.5227 51.4061 20.2944L51.2945 20.0753L51.4061 19.8561C51.5472 19.5787 51.7134 19.3122 51.9023 19.0585C52.1781 18.6879 52.5023 18.3444 52.8677 18.0341C53.2326 17.7241 53.6385 17.4471 54.0783 17.209C54.1659 17.1616 54.2549 17.1156 54.3452 17.0713C54.6541 16.9196 54.9782 16.7864 55.315 16.6735C55.7284 16.5349 56.1612 16.427 56.6089 16.3532C56.8838 16.3078 57.1643 16.2754 57.4494 16.2566C57.6415 16.2439 57.8358 16.2375 58.0318 16.2375C58.2359 16.2375 58.438 16.2445 58.6378 16.2582C58.9225 16.2777 59.2025 16.3109 59.4768 16.3568C59.9233 16.4317 60.3549 16.5404 60.7671 16.6797C61.1026 16.7931 61.4253 16.9266 61.7329 17.0785C61.8182 17.1206 61.9024 17.1641 61.9853 17.209C62.428 17.4487 62.8365 17.7278 63.2033 18.0403C63.5667 18.3499 63.8892 18.6923 64.1638 19.0617C64.3516 19.3145 64.517 19.5799 64.6576 19.8561L64.7691 20.0753L64.6576 20.2944C64.542 20.5215 64.4097 20.7413 64.2618 20.9528C63.9966 21.3323 63.6814 21.6851 63.3238 22.005C62.9267 22.3603 62.4772 22.6752 61.9853 22.9415Z" fill="white"/>
<path d="M25.7631 39.9154V23.2276H9.85567V39.9154H0V0H9.85567V15.1092H25.7631V0H35.6187V39.9154H25.7631Z" fill="white"/>
<path d="M112 12.3749C112 14.7052 111.558 16.6784 110.674 18.2946C109.791 19.8731 108.6 21.151 107.101 22.1283C105.602 23.1055 103.873 23.8196 101.914 24.2706C99.9542 24.7216 97.9176 24.9471 95.8044 24.9471H90.9054V40H81.0498V20.0423V0.0845666H96.035C98.2635 0.0845666 100.338 0.310078 102.26 0.761097C104.219 1.17453 105.91 1.86985 107.332 2.84708C108.791 3.7867 109.925 5.04581 110.732 6.62438C111.577 8.16539 112 10.0822 112 12.3749ZM102.144 12.4313C102.144 11.4917 101.952 10.7212 101.568 10.1198C101.184 9.51845 100.665 9.04863 100.012 8.71036C99.3585 8.3721 98.6093 8.14658 97.764 8.03383C96.9571 7.92107 96.1116 7.86469 95.2281 7.86469H90.9054V17.2798H95.0552C95.9773 17.2798 96.8609 17.2046 97.7064 17.0543C98.5516 16.9039 99.3009 16.6408 99.9542 16.265C100.646 15.8891 101.184 15.4005 101.568 14.7992C101.952 14.1602 102.144 13.3709 102.144 12.4313Z" fill="white"/>
<path d="M58.0318 5.59994L59.8412 8.67902L60.2012 6.41167L58.0318 2.71998L55.8811 6.37987L56.2411 8.64718L58.0318 5.59994Z" fill="white"/>
<path d="M58.8763 22.1163L58.0435 19.9997L58.4006 22.2482C58.5659 22.2213 58.7252 22.1766 58.8763 22.1163Z" fill="white"/>
<path fill-rule="evenodd" clip-rule="evenodd" d="M55.8811 6.37987L56.2411 8.64718L54.6455 11.3625L53.1066 13.9813L52.2607 15.4207L51.1159 17.3688L50.27 18.8083L48.7311 21.427L47.1356 24.1422L44.7713 28.1656H47.7308H51.345H54.8309H56.747H59.3402H61.2563H64.7421H68.3563H71.2924L68.9214 24.1308L67.3302 21.4231L65.7956 18.8116L64.9521 17.3762L63.8104 15.4335L62.9669 13.998L61.4323 11.3866L59.8412 8.67902L60.2012 6.41167L62.111 9.66153L65.4717 1.11953L70.972 4.23949L63.9529 12.796L64.9654 14.5189L74.085 7.29795L77.2606 12.7019L66.3357 16.8507L67.3482 18.5737L78.4 16.8798V23.1197L69.1901 21.7081L71.1 24.9581L77.2605 27.2977L74.085 32.7016L70.1749 29.6056H65.9233L70.9719 35.76L65.4717 38.88L61.8228 29.6056H59.5688L61.2192 39.9995H54.8681L56.5184 29.6056H54.2644L50.6156 38.88L45.1153 35.76L50.1638 29.6056H45.9123L42.0023 32.7015L38.8267 27.2976L44.957 24.9695L46.8712 21.7121L37.6873 23.1197V16.8798L48.7175 18.5704L49.7323 16.8434L38.8267 12.7018L42.0023 7.29789L51.1057 14.5062L52.1206 12.7792L45.1153 4.23945L50.6156 1.1195L53.9668 9.63748L55.8811 6.37987ZM55.8811 6.37987L54.8681 1.79098e-05L61.2192 1.84553e-05L60.2012 6.41167L58.0318 2.71998L55.8811 6.37987ZM57.4494 16.2566C57.6415 16.2439 57.8358 16.2375 58.0318 16.2375C58.2359 16.2375 58.438 16.2445 58.6378 16.2582C58.9225 16.2777 59.2025 16.3109 59.4768 16.3568C59.9233 16.4317 60.3549 16.5404 60.7671 16.6797C61.1026 16.7931 61.4253 16.9266 61.7329 17.0785C61.8182 17.1206 61.9024 17.1641 61.9853 17.209C62.428 17.4487 62.8365 17.7278 63.2033 18.0403C63.5667 18.3499 63.8892 18.6923 64.1638 19.0617C64.3516 19.3145 64.517 19.5799 64.6576 19.8561L64.7691 20.0753L64.6576 20.2944C64.542 20.5215 64.4097 20.7413 64.2618 20.9528C63.9966 21.3323 63.6814 21.6851 63.3238 22.005C62.9267 22.3603 62.4772 22.6752 61.9853 22.9415C61.9404 22.9659 61.8951 22.9898 61.8494 23.0133C61.5364 23.1746 61.2069 23.3167 60.8636 23.4376C60.4394 23.5869 59.9941 23.7037 59.5325 23.7842C59.2479 23.8338 58.9572 23.8696 58.6614 23.8907C58.4539 23.9055 58.2439 23.9131 58.0318 23.9131C57.8276 23.9131 57.6254 23.906 57.4255 23.8923C57.1293 23.872 56.8381 23.8369 56.5531 23.788C56.0903 23.7085 55.6437 23.5926 55.2182 23.444C54.8736 23.3236 54.5428 23.1818 54.2284 23.0206C54.1779 22.9948 54.1279 22.9684 54.0783 22.9415C53.5894 22.6768 53.1423 22.364 52.7468 22.0113C52.3874 21.6906 52.0706 21.3368 51.8041 20.9561C51.6553 20.7436 51.5222 20.5227 51.4061 20.2944L51.2945 20.0753L51.4061 19.8561C51.5472 19.5787 51.7134 19.3122 51.9023 19.0585C52.1781 18.6879 52.5023 18.3444 52.8677 18.0341C53.2326 17.7241 53.6385 17.4471 54.0783 17.209C54.1659 17.1616 54.2549 17.1156 54.3452 17.0713C54.6541 16.9196 54.9782 16.7864 55.315 16.6735C55.7284 16.5349 56.1612 16.427 56.6089 16.3532C56.8838 16.3078 57.1643 16.2754 57.4494 16.2566ZM63.6457 20.0753C63.5019 20.3222 63.3329 20.5581 63.1413 20.7811C62.8852 21.0791 62.5886 21.3538 62.2578 21.6002C62.023 21.775 61.771 21.9357 61.504 22.0802C61.3376 22.1703 61.1654 22.2541 60.9879 22.3312C60.7333 22.4418 60.4678 22.5385 60.193 22.6201C59.8624 22.7182 59.5184 22.7945 59.1636 22.8467C58.9483 22.8783 58.729 22.9011 58.5064 22.9146C58.3498 22.924 58.1915 22.9288 58.0318 22.9288C57.88 22.9288 57.7295 22.9245 57.5805 22.9159C57.3576 22.9031 57.1379 22.881 56.9222 22.8499C56.5664 22.7986 56.2212 22.7231 55.8895 22.6256C55.6135 22.5445 55.3468 22.4481 55.0909 22.3377C54.9081 22.2589 54.7309 22.1729 54.5597 22.0802C54.2957 21.9373 54.0463 21.7786 53.8138 21.606C53.481 21.359 53.1827 21.0834 52.9251 20.7842C52.7323 20.5604 52.5624 20.3234 52.4179 20.0753C52.5913 19.7775 52.8014 19.4957 53.0436 19.2334C53.3094 18.9456 53.614 18.6814 53.9511 18.4456C54.1437 18.3109 54.347 18.1855 54.5597 18.0703C54.7695 17.9567 54.9885 17.8532 55.2156 17.7605C55.4644 17.659 55.723 17.5705 55.9899 17.4962C56.3083 17.4076 56.6386 17.3391 56.9785 17.2927C57.1839 17.2647 57.3927 17.2448 57.6044 17.2333C57.7456 17.2256 57.8881 17.2217 58.0318 17.2217C58.1835 17.2217 58.3339 17.2261 58.4827 17.2346C58.6941 17.2467 58.9025 17.2672 59.1074 17.2958C59.4463 17.343 59.7755 17.4122 60.0929 17.5015C60.3586 17.5763 60.6159 17.6651 60.8636 17.7668C61.0852 17.8579 61.299 17.9593 61.504 18.0703C61.7198 18.1871 61.9258 18.3145 62.1209 18.4513C62.456 18.6865 62.7586 18.9499 63.0229 19.2366C63.2639 19.4979 63.473 19.7787 63.6457 20.0753ZM60.2347 19.6639C60.2603 19.7972 60.2737 19.9347 60.2737 20.0753C60.2737 20.1645 60.2683 20.2526 60.2578 20.3391C60.2384 20.4984 60.2017 20.6525 60.1496 20.7996C60.0717 21.0195 59.9593 21.2235 59.8188 21.4054C59.72 21.5334 59.6073 21.6504 59.4828 21.7543C59.3029 21.9046 59.0984 22.0274 58.8763 22.1163L58.0435 19.9997L58.4006 22.2482C58.2806 22.2677 58.1574 22.2779 58.0318 22.2779C57.9142 22.2779 57.7987 22.269 57.686 22.2518C57.5198 22.2265 57.3597 22.1833 57.2077 22.1243C56.9834 22.0371 56.7768 21.9154 56.5948 21.7659C56.4686 21.6622 56.3542 21.5451 56.2538 21.4169C56.1108 21.2343 55.9963 21.0289 55.9169 20.8074C55.8637 20.6591 55.8262 20.5035 55.8064 20.3426C55.7956 20.255 55.7901 20.1658 55.7901 20.0753C55.7901 19.9335 55.8037 19.7948 55.8297 19.6604C55.86 19.5044 55.907 19.3543 55.9689 19.2118C56.0593 19.0036 56.1814 18.8118 56.3293 18.6423C56.4313 18.5255 56.5456 18.4192 56.6701 18.3255C56.8476 18.192 57.0459 18.084 57.2595 18.007C57.4032 17.9552 57.5538 17.9174 57.7095 17.8954C57.8148 17.8805 57.9224 17.8728 58.0318 17.8728C58.1493 17.8728 58.2646 17.8817 58.3773 17.8988C58.5322 17.9223 58.6819 17.9614 58.8246 18.0145C58.9239 18.0514 59.0198 18.095 59.1118 18.1447L59.1043 18.1445C59.0977 18.1444 59.0911 18.1443 59.0845 18.1443C58.9627 18.1443 58.8472 18.1712 58.744 18.2193C58.4751 18.3446 58.2893 18.6138 58.2893 18.9256C58.2893 19.031 58.3105 19.1315 58.349 19.2233C58.3842 19.3071 58.4338 19.3836 58.4947 19.4497C58.5294 19.4873 58.5676 19.5216 58.6091 19.552C58.6896 19.6111 58.782 19.6555 58.882 19.6813C58.9466 19.698 59.0145 19.7069 59.0845 19.7069C59.3639 19.7069 59.6097 19.5653 59.7515 19.3511C59.8326 19.2287 59.8797 19.0825 59.8797 18.9256C59.8797 18.8888 59.8771 18.8525 59.8721 18.8171C59.961 18.9423 60.037 19.0771 60.0982 19.2195C60.1588 19.3607 60.205 19.5095 60.2347 19.6639Z" fill="white"/>
</svg>
