<svg width="942" height="75" viewBox="0 0 942 75" fill="none" xmlns="http://www.w3.org/2000/svg">
<path d="M0.800049 2.2H13.4V30.8H46.5V2.2H59.1V73H46.5V41.6H13.4V73H0.800049V2.2ZM74.7258 2.2H87.3258V73H74.7258V2.2ZM164.948 69.3C161.348 71.0333 157.382 72.3667 153.048 73.3C148.782 74.3 143.848 74.8 138.248 74.8C132.515 74.8 127.282 73.9 122.548 72.1C117.815 70.2333 113.748 67.6667 110.348 64.4C106.948 61.0667 104.282 57.1333 102.348 52.6C100.482 48 99.5484 42.9333 99.5484 37.4C99.5484 31.7333 100.515 26.6333 102.448 22.1C104.448 17.5 107.148 13.6 110.548 10.4C114.015 7.2 118.082 4.73333 122.748 3C127.415 1.26666 132.482 0.399999 137.948 0.399999C143.615 0.399999 148.782 1.23333 153.448 2.9C158.182 4.5 161.982 6.63333 164.848 9.3L156.148 18.7C154.348 16.7 151.815 15 148.548 13.6C145.348 12.2 141.848 11.5 138.048 11.5C134.315 11.5 130.915 12.1667 127.848 13.5C124.848 14.8333 122.282 16.6667 120.148 19C118.015 21.3333 116.348 24.0667 115.148 27.2C114.015 30.3333 113.448 33.7333 113.448 37.4C113.448 41.2 114.015 44.7 115.148 47.9C116.348 51.0333 118.015 53.7667 120.148 56.1C122.348 58.4333 124.982 60.2667 128.048 61.6C131.182 62.8667 134.715 63.5 138.648 63.5C144.048 63.5 148.748 62.6667 152.748 61V43H137.848V32.6H164.948V69.3ZM180.292 2.2H192.892V30.8H225.992V2.2H238.592V73H225.992V41.6H192.892V73H180.292V2.2ZM364.081 2.2H380.781L413.681 55.2H413.881V2.2H426.481V73H410.481L376.881 18.3H376.681V73H364.081V2.2ZM467.109 2.2H490.209C494.275 2.2 497.942 2.56667 501.209 3.3C504.475 4.03333 507.275 5.23333 509.609 6.9C511.942 8.56666 513.742 10.7 515.009 13.3C516.275 15.9 516.909 19.0333 516.909 22.7C516.909 26.6333 516.175 29.9333 514.709 32.6C513.242 35.2667 511.242 37.4333 508.709 39.1C506.242 40.7 503.342 41.8667 500.009 42.6C496.675 43.3333 493.142 43.7 489.409 43.7H479.709V73H467.109V2.2ZM488.509 33.1C490.575 33.1 492.542 32.9667 494.409 32.7C496.275 32.3667 497.942 31.8333 499.409 31.1C500.875 30.3 502.042 29.2333 502.909 27.9C503.775 26.5667 504.209 24.8333 504.209 22.7C504.209 20.6333 503.775 18.9667 502.909 17.7C502.042 16.3667 500.875 15.3333 499.409 14.6C498.009 13.8667 496.375 13.4 494.509 13.2C492.709 12.9333 490.842 12.8 488.909 12.8H479.709V33.1H488.509ZM528.144 2.2H552.744C556.077 2.2 559.31 2.56667 562.444 3.3C565.577 3.96666 568.344 5.1 570.744 6.7C573.21 8.29999 575.177 10.4 576.644 13C578.11 15.6 578.844 18.7667 578.844 22.5C578.844 27.6333 577.377 31.8333 574.444 35.1C571.577 38.3 567.644 40.4667 562.644 41.6L581.544 73H566.344L549.944 43H540.744V73H528.144V2.2ZM551.044 32.7C552.844 32.7 554.644 32.5667 556.444 32.3C558.244 32.0333 559.844 31.5333 561.244 30.8C562.71 30.0667 563.91 29.0333 564.844 27.7C565.777 26.3 566.244 24.5333 566.244 22.4C566.244 20.4667 565.81 18.9 564.944 17.7C564.077 16.4333 562.977 15.4333 561.644 14.7C560.31 13.9667 558.777 13.4667 557.044 13.2C555.377 12.9333 553.744 12.8 552.144 12.8H540.744V32.7H551.044ZM587.634 37.4C587.634 31.7333 588.568 26.6333 590.434 22.1C592.368 17.5 595.001 13.6 598.334 10.4C601.734 7.2 605.734 4.73333 610.334 3C615.001 1.26666 620.068 0.399999 625.534 0.399999C631.068 0.399999 636.168 1.26666 640.834 3C645.501 4.73333 649.534 7.2 652.934 10.4C656.334 13.6 658.968 17.5 660.834 22.1C662.768 26.6333 663.734 31.7333 663.734 37.4C663.734 42.9333 662.768 48 660.834 52.6C658.968 57.1333 656.334 61.0667 652.934 64.4C649.534 67.6667 645.501 70.2333 640.834 72.1C636.168 73.9 631.068 74.8 625.534 74.8C620.068 74.8 615.001 73.9 610.334 72.1C605.734 70.2333 601.734 67.6667 598.334 64.4C595.001 61.0667 592.368 57.1333 590.434 52.6C588.568 48 587.634 42.9333 587.634 37.4ZM601.334 37.4C601.334 41.2 601.901 44.7 603.034 47.9C604.234 51.0333 605.901 53.7667 608.034 56.1C610.234 58.4333 612.801 60.2667 615.734 61.6C618.734 62.8667 622.034 63.5 625.634 63.5C629.234 63.5 632.534 62.8667 635.534 61.6C638.534 60.2667 641.101 58.4333 643.234 56.1C645.434 53.7667 647.101 51.0333 648.234 47.9C649.434 44.7 650.034 41.2 650.034 37.4C650.034 33.7333 649.434 30.3333 648.234 27.2C647.101 24.0667 645.468 21.3333 643.334 19C641.201 16.6667 638.634 14.8333 635.634 13.5C632.634 12.1667 629.301 11.5 625.634 11.5C621.968 11.5 618.634 12.1667 615.634 13.5C612.701 14.8333 610.168 16.6667 608.034 19C605.901 21.3333 604.234 24.0667 603.034 27.2C601.901 30.3333 601.334 33.7333 601.334 37.4ZM675.898 2.2H700.998C705.598 2.2 710.231 2.8 714.898 3.99999C719.564 5.19999 723.764 7.19999 727.498 9.99999C731.231 12.7333 734.264 16.3667 736.598 20.9C738.931 25.3667 740.098 30.9333 740.098 37.6C740.098 43.8 738.931 49.1333 736.598 53.6C734.264 58.0667 731.231 61.7333 727.498 64.6C723.764 67.4667 719.564 69.6 714.898 71C710.231 72.3333 705.598 73 700.998 73H675.898V2.2ZM698.998 62C702.264 62 705.531 61.6333 708.798 60.9C712.064 60.1 714.998 58.8 717.598 57C720.264 55.1333 722.431 52.6333 724.098 49.5C725.764 46.3667 726.598 42.4 726.598 37.6C726.598 32.5333 725.764 28.4 724.098 25.2C722.431 22 720.264 19.5 717.598 17.7C714.998 15.9 712.064 14.6667 708.798 14C705.531 13.3333 702.264 13 698.998 13H688.498V62H698.998ZM808.665 47C808.665 51.2667 807.932 55.1333 806.465 58.6C804.998 62 802.998 64.9 800.465 67.3C797.932 69.7 794.932 71.5667 791.465 72.9C787.998 74.1667 784.232 74.8 780.165 74.8C776.098 74.8 772.332 74.1667 768.865 72.9C765.398 71.5667 762.365 69.7 759.765 67.3C757.232 64.9 755.232 62 753.765 58.6C752.365 55.1333 751.665 51.2667 751.665 47V2.2H764.265V46.5C764.265 48.5667 764.532 50.6333 765.065 52.7C765.598 54.7 766.465 56.5 767.665 58.1C768.932 59.7 770.565 61 772.565 62C774.632 63 777.165 63.5 780.165 63.5C783.165 63.5 785.665 63 787.665 62C789.732 61 791.365 59.7 792.565 58.1C793.832 56.5 794.732 54.7 795.265 52.7C795.798 50.6333 796.065 48.5667 796.065 46.5V2.2H808.665V47ZM874.752 18.8C872.885 16.2667 870.452 14.4333 867.452 13.3C864.452 12.1 861.518 11.5 858.652 11.5C854.985 11.5 851.652 12.1667 848.652 13.5C845.652 14.8333 843.052 16.6667 840.852 19C838.718 21.3333 837.052 24.0667 835.852 27.2C834.718 30.3333 834.152 33.7333 834.152 37.4C834.152 41.2667 834.718 44.8 835.852 48C836.985 51.2 838.585 53.9667 840.652 56.3C842.785 58.5667 845.318 60.3333 848.252 61.6C851.185 62.8667 854.485 63.5 858.152 63.5C861.952 63.5 865.318 62.7667 868.252 61.3C871.185 59.7667 873.552 57.7667 875.352 55.3L885.452 62.4C882.318 66.3333 878.485 69.4 873.952 71.6C869.418 73.7333 864.118 74.8 858.052 74.8C852.518 74.8 847.418 73.9 842.752 72.1C838.152 70.2333 834.185 67.6667 830.852 64.4C827.518 61.0667 824.918 57.1333 823.052 52.6C821.185 48 820.252 42.9333 820.252 37.4C820.252 31.7333 821.218 26.6333 823.152 22.1C825.152 17.5 827.852 13.6 831.252 10.4C834.718 7.2 838.785 4.73333 843.452 3C848.118 1.26666 853.185 0.399999 858.652 0.399999C860.918 0.399999 863.285 0.633331 865.752 1.1C868.218 1.49999 870.585 2.16666 872.852 3.09999C875.118 3.96666 877.252 5.06666 879.252 6.4C881.252 7.73333 882.952 9.33333 884.352 11.2L874.752 18.8ZM906.995 13.2H885.295V2.2H941.295V13.2H919.595V73H906.995V13.2Z" fill="white"/>
<path d="M313.978 10.5L317.356 16.2733L318.028 12.022L313.978 5.1L309.963 11.9624L310.635 16.2136L313.978 10.5Z" fill="white"/>
<path d="M315.554 41.4685L314 37.5L314.666 41.7159C314.975 41.6655 315.272 41.5817 315.554 41.4685Z" fill="white"/>
<path fill-rule="evenodd" clip-rule="evenodd" d="M310.635 16.2136L309.963 11.9624L313.978 5.1L318.028 12.022L317.356 16.2733L320.326 21.35L323.19 26.2466L324.765 28.9381L326.896 32.5807L328.471 35.2722L331.336 40.1688L334.306 45.2457L338.732 52.8111H333.251H326.504H319.997H316.42H311.58H308.003H301.496H294.749H289.224L293.638 45.2672L296.616 40.1762L299.489 35.266L301.068 32.567L303.205 28.9142L304.784 26.2152L307.657 21.305L310.635 16.2136ZM318.028 12.022L319.928 0H308.072L309.963 11.9624L306.39 18.0705L300.134 2.09905L289.866 7.94904L302.943 23.9614L301.049 27.1994L284.055 13.6837L278.127 23.8162L298.485 31.5818L296.591 34.8199L276 31.65V43.35L293.144 40.7107L289.571 46.8185L278.127 51.1837L284.055 61.3162L291.354 55.5111H299.29L289.866 67.0509L300.134 72.9009L306.945 55.5111H311.153L308.072 75H319.928L316.847 55.5111H321.055L327.866 72.901L338.134 67.0509L328.709 55.5111H336.646L343.945 61.3163L349.873 51.1838L338.373 46.797L334.808 40.7033L352 43.35V31.65L331.369 34.826L329.479 31.5955L349.873 23.8163L343.945 13.6838L326.921 27.2233L325.031 23.9928L338.134 7.94912L327.866 2.09912L321.593 18.1156L318.028 12.022ZM313.978 30.4456C313.612 30.4456 313.249 30.4577 312.891 30.4815C312.358 30.5167 311.835 30.5776 311.322 30.6626C310.486 30.801 309.678 31.0034 308.906 31.2632C308.278 31.4749 307.673 31.7247 307.096 32.0091C306.928 32.0922 306.761 32.1783 306.598 32.2673C305.777 32.7137 305.019 33.2331 304.338 33.8144C303.656 34.3963 303.051 35.0402 302.536 35.7351C302.183 36.2109 301.873 36.7106 301.609 37.2306L301.401 37.6416L301.609 38.0526C301.826 38.4805 302.075 38.8947 302.352 39.2931C302.85 40.007 303.441 40.6703 304.112 41.2716L306.104 40.5118C305.483 40.0487 304.926 39.5319 304.445 38.9709C304.085 38.5512 303.768 38.1068 303.498 37.6416C303.822 37.0833 304.214 36.5548 304.666 36.0631C305.163 35.5234 305.731 35.028 306.36 34.5859C306.72 34.3333 307.099 34.0982 307.497 33.8822C307.888 33.6692 308.297 33.4751 308.721 33.3013C309.185 33.111 309.668 32.9451 310.166 32.8058C310.761 32.6396 311.377 32.5112 312.012 32.4243C312.395 32.3717 312.785 32.3343 313.18 32.3128C313.444 32.2984 313.71 32.2911 313.978 32.2911C314.261 32.2911 314.542 32.2993 314.82 32.3152C315.214 32.3379 315.603 32.3764 315.986 32.43C316.618 32.5186 317.233 32.6484 317.825 32.8157C318.321 32.9559 318.802 33.1224 319.264 33.3132C319.678 33.4839 320.077 33.6741 320.46 33.8822C320.863 34.1013 321.247 34.3401 321.611 34.5967C322.237 35.0377 322.802 35.5315 323.295 36.069C323.745 36.5591 324.135 37.0856 324.458 37.6416C324.189 38.1046 323.874 38.547 323.516 38.965C323.038 39.5238 322.484 40.0388 321.867 40.5008C321.429 40.8287 320.958 41.1299 320.46 41.401C320.149 41.5699 319.828 41.727 319.496 41.8715C319.021 42.0788 318.525 42.2602 318.012 42.4131C317.395 42.5972 316.753 42.7402 316.091 42.8381C315.689 42.8974 315.279 42.9402 314.864 42.9653C314.572 42.983 314.276 42.992 313.978 42.992C313.695 42.992 313.414 42.9839 313.136 42.9679C312.719 42.9439 312.309 42.9024 311.907 42.8441C311.242 42.748 310.598 42.6064 309.979 42.4236C309.464 42.2714 308.966 42.0907 308.488 41.8837L306.878 43.1642C307.465 43.4664 308.082 43.7322 308.726 43.958C309.52 44.2366 310.354 44.4541 311.218 44.6031C311.75 44.6948 312.293 44.7606 312.846 44.7987C313.219 44.8244 313.597 44.8375 313.978 44.8375C314.374 44.8375 314.766 44.8234 315.153 44.7956C315.705 44.7561 316.248 44.689 316.779 44.5959C317.641 44.445 318.472 44.226 319.264 43.946C319.905 43.7194 320.52 43.453 321.104 43.1505C321.19 43.1064 321.274 43.0615 321.358 43.0159C322.276 42.5166 323.115 41.9262 323.857 41.2599C324.524 40.66 325.113 39.9986 325.608 39.287C325.884 38.8905 326.131 38.4783 326.346 38.0526L326.555 37.6416L326.346 37.2306C326.084 36.7128 325.775 36.2151 325.425 35.7412C324.912 35.0486 324.31 34.4065 323.632 33.826C322.947 33.24 322.185 32.7167 321.358 32.2673C321.203 32.1831 321.046 32.1015 320.887 32.0225C320.313 31.7378 319.71 31.4874 319.084 31.2748C318.315 31.0137 317.509 30.8097 316.675 30.6694C316.163 30.5832 315.641 30.5211 315.109 30.4845C314.736 30.4588 314.359 30.4456 313.978 30.4456ZM318.163 37.6416C318.163 37.378 318.138 37.1202 318.09 36.8703C318.035 36.5807 317.949 36.3018 317.835 36.037C317.721 35.77 317.579 35.5173 317.413 35.2824C317.423 35.3489 317.428 35.4169 317.428 35.4859C317.428 35.7802 317.34 36.0542 317.188 36.2838C316.923 36.6853 316.465 36.9509 315.943 36.9509C315.812 36.9509 315.686 36.9342 315.565 36.9029C315.378 36.8546 315.206 36.7712 315.056 36.6604C314.978 36.6034 314.907 36.5392 314.842 36.4687C314.728 36.3446 314.636 36.2013 314.57 36.0441C314.498 35.8721 314.459 35.6836 314.459 35.4859C314.459 34.9012 314.806 34.3965 315.308 34.1616C315.5 34.0714 315.716 34.021 315.943 34.021C315.955 34.021 315.968 34.0211 315.98 34.0214L315.994 34.0218C315.822 33.9285 315.643 33.8467 315.458 33.7775C315.191 33.6781 314.912 33.6047 314.623 33.5606C314.413 33.5285 314.197 33.5119 313.978 33.5119C313.774 33.5119 313.573 33.5263 313.376 33.5542C313.086 33.5955 312.805 33.6663 312.536 33.7634C312.138 33.9078 311.767 34.1104 311.436 34.3607C311.204 34.5364 310.99 34.7357 310.8 34.9548C310.524 35.2726 310.296 35.6322 310.127 36.0227C310.012 36.2897 309.924 36.5713 309.867 36.8638C309.819 37.1157 309.793 37.3757 309.793 37.6416C309.793 37.8113 309.804 37.9786 309.824 38.1429C309.861 38.4446 309.931 38.7363 310.03 39.0143C310.178 39.4297 310.392 39.8147 310.659 40.1572C310.846 40.3976 311.06 40.6171 311.295 40.8115C311.635 41.0919 312.021 41.3201 312.44 41.4835C312.723 41.5943 313.022 41.6753 313.332 41.7227C313.543 41.7548 313.758 41.7715 313.978 41.7715C314.212 41.7715 314.442 41.7525 314.666 41.7159L314 37.5L315.554 41.4685C315.969 41.3019 316.351 41.0716 316.687 40.7898C316.919 40.595 317.129 40.3756 317.314 40.1357C317.576 39.7946 317.786 39.412 317.931 38.9997C318.029 38.724 318.097 38.4351 318.133 38.1363C318.153 37.9741 318.163 37.809 318.163 37.6416Z" fill="white"/>
<path d="M306.598 43.0159C306.69 43.0663 306.784 43.1157 306.878 43.1642L308.488 41.8837C308.147 41.7359 307.816 41.5747 307.497 41.401C307.004 41.1329 306.538 40.8355 306.104 40.5118L304.112 41.2716C304.85 41.9331 305.685 42.5196 306.598 43.0159Z" fill="white"/>
</svg>
