<svg width="400" height="139" viewBox="0 0 400 139" fill="none" xmlns="http://www.w3.org/2000/svg">
<g clip-path="url(#clip0_35_316)">
<path d="M0.443817 1.6173L11.0442 1.6173L11.0442 25.6177L38.8912 25.6177L38.8912 1.6173L49.4916 1.6173L49.4916 61.0308L38.8912 61.0308L38.8912 34.6807L11.0442 34.6807L11.0442 61.0308L0.443814 61.0308L0.443817 1.6173ZM62.6373 1.6173L73.2377 1.61729L73.2377 61.0308L62.6373 61.0308L62.6373 1.6173ZM138.542 57.9259C135.513 59.3805 132.176 60.4993 128.53 61.2826C124.941 62.1217 120.79 62.5413 116.079 62.5413C111.256 62.5413 106.853 61.7861 102.871 60.2756C98.8889 58.7091 95.4671 56.5552 92.6067 53.8139C89.7463 51.0166 87.5031 47.7159 85.8763 43.9117C84.3061 40.0515 83.5207 35.7997 83.5207 31.1562C83.5207 26.4009 84.3344 22.1211 85.9604 18.3169C87.643 14.4567 89.9146 11.1839 92.775 8.49853C95.692 5.81316 99.113 3.7432 103.039 2.28863C106.965 0.834063 111.228 0.106784 115.827 0.106784C120.594 0.106784 124.941 0.806097 128.867 2.20472C132.849 3.5474 136.046 5.33763 138.458 7.57543L131.138 15.4637C129.624 13.7853 127.493 12.3587 124.744 11.1839C122.052 10.009 119.108 9.42162 115.911 9.42162C112.77 9.42162 109.91 9.98104 107.329 11.1C104.806 12.2189 102.646 13.7573 100.851 15.7154C99.0572 17.6735 97.6545 19.9672 96.6449 22.5966C95.692 25.2261 95.2148 28.0793 95.2148 31.1562C95.2148 34.3451 95.692 37.2822 96.6449 39.9675C97.6545 42.597 99.0572 44.8907 100.851 46.8488C102.702 48.8069 104.918 50.3453 107.498 51.4642C110.134 52.5272 113.107 53.0587 116.415 53.0587C120.959 53.0587 124.913 52.3593 128.278 50.9607L128.278 35.8556L115.742 35.8556L115.742 27.1282L138.542 27.1282L138.542 57.9259ZM151.45 1.6173L162.051 1.6173L162.051 25.6177L189.898 25.6177L189.898 1.6173L200.498 1.6173L200.498 61.0308L189.898 61.0308L189.898 34.6807L162.051 34.6807L162.051 61.0308L151.45 61.0308L151.45 1.6173ZM306.072 1.6173L320.122 1.6173L347.801 46.0935L347.969 46.0935L347.969 1.6173L358.569 1.6173L358.569 61.0308L345.109 61.0308L316.841 15.128L316.672 15.128L316.672 61.0308L306.072 61.0308L306.072 1.6173ZM0.443814 77.1429L19.8778 77.1429C23.2989 77.1429 26.3842 77.4504 29.1321 78.066C31.8801 78.6817 34.2357 79.6887 36.199 81.0871C38.1623 82.4854 39.6767 84.2759 40.7421 86.4578C41.8075 88.6396 42.3405 91.2693 42.3405 94.346C42.3405 97.647 41.7233 100.416 40.4897 102.654C39.256 104.891 37.5734 106.71 35.4419 108.108C33.3669 109.451 30.9271 110.43 28.1226 111.046C25.318 111.661 22.3459 111.969 19.2048 111.969L11.0442 111.969L11.0442 136.556L0.443811 136.556L0.443814 77.1429ZM18.4476 103.073C20.186 103.073 21.8412 102.961 23.4113 102.738C24.9815 102.458 26.3841 102.011 27.6178 101.395C28.8514 100.724 29.8334 99.8289 30.5623 98.7097C31.2912 97.5906 31.6561 96.1365 31.6561 94.346C31.6561 92.612 31.2912 91.2128 30.5623 90.1501C29.8334 89.031 28.8514 88.1643 27.6178 87.5487C26.44 86.933 25.0656 86.5417 23.4954 86.3738C21.9811 86.1503 20.4109 86.0382 18.7841 86.0382L11.0442 86.0382L11.0442 103.073L18.4476 103.073ZM51.7929 77.1429L72.4889 77.1429C75.2927 77.1429 78.0132 77.4504 80.6496 78.066C83.2851 78.6252 85.6132 79.5765 87.6324 80.9192C89.7073 82.2619 91.3616 84.0242 92.596 86.206C93.8296 88.3879 94.4469 91.045 94.4469 94.1782C94.4469 98.4862 93.2124 102.011 90.7451 104.752C88.3329 107.437 85.0243 109.255 80.8178 110.206L96.7183 136.556L83.9306 136.556L70.1333 111.381L62.3933 111.381L62.3933 136.556L51.7929 136.556L51.7929 77.1429ZM71.0587 102.738C72.573 102.738 74.0874 102.626 75.6017 102.402C77.1161 102.179 78.4622 101.759 79.64 101.143C80.8736 100.528 81.8832 99.661 82.6687 98.5419C83.4534 97.367 83.8465 95.8847 83.8465 94.0942C83.8465 92.4716 83.4817 91.1571 82.7528 90.1501C82.0232 89.0874 81.0977 88.2483 79.9765 87.6326C78.8545 87.017 77.5643 86.5974 76.1065 86.3738C74.7039 86.1503 73.3302 86.0382 71.9842 86.0382L62.3933 86.0382L62.3933 102.738L71.0587 102.738ZM101.842 106.682C101.842 101.927 102.627 97.647 104.198 93.8425C105.824 89.9823 108.04 86.7095 110.844 84.0242C113.704 81.3388 117.069 79.2691 120.939 77.8143C124.866 76.3595 129.128 75.6324 133.727 75.6324C138.383 75.6324 142.673 76.3595 146.599 77.8143C150.526 79.2691 153.918 81.3388 156.779 84.0242C159.639 86.7095 161.855 89.9823 163.425 93.8425C165.052 97.647 165.865 101.927 165.865 106.682C165.865 111.326 165.052 115.577 163.425 119.437C161.855 123.242 159.639 126.542 156.779 129.34C153.918 132.081 150.526 134.235 146.599 135.801C142.673 137.312 138.383 138.067 133.727 138.067C129.128 138.067 124.866 137.312 120.939 135.801C117.069 134.235 113.704 132.081 110.844 129.34C108.04 126.542 105.824 123.242 104.198 119.437C102.627 115.577 101.842 111.326 101.842 106.682ZM113.368 106.682C113.368 109.871 113.845 112.808 114.798 115.493C115.807 118.123 117.21 120.416 119.004 122.374C120.855 124.333 123.015 125.871 125.482 126.99C128.006 128.053 130.783 128.584 133.811 128.584C136.84 128.584 139.616 128.053 142.14 126.99C144.664 125.871 146.824 124.333 148.618 122.374C150.469 120.416 151.872 118.123 152.825 115.493C153.834 112.808 154.339 109.871 154.339 106.682C154.339 103.605 153.834 100.752 152.825 98.1223C151.872 95.4926 150.497 93.1994 148.702 91.2411C146.908 89.2827 144.748 87.7448 142.224 86.6256C139.7 85.5065 136.897 84.9473 133.811 84.9473C130.727 84.9473 127.922 85.5065 125.398 86.6256C122.931 87.7448 120.799 89.2827 119.004 91.2411C117.21 93.1994 115.807 95.4926 114.798 98.1223C113.845 100.752 113.368 103.605 113.368 106.682ZM176.098 77.1429L197.215 77.1429C201.085 77.1429 204.983 77.6464 208.909 78.6535C212.835 79.6605 216.368 81.3388 219.509 83.6885C222.65 85.9825 225.202 89.031 227.165 92.8355C229.128 96.5835 230.11 101.255 230.11 106.85C230.11 112.053 229.128 116.528 227.165 120.276C225.202 124.025 222.65 127.102 219.509 129.507C216.368 131.913 212.835 133.703 208.909 134.878C204.983 135.997 201.085 136.556 197.215 136.556L176.098 136.556L176.098 77.1429ZM195.532 127.326C198.28 127.326 201.029 127.018 203.777 126.402C206.525 125.731 208.993 124.64 211.18 123.13C213.424 121.563 215.247 119.466 216.649 116.836C218.051 114.206 218.752 110.878 218.752 106.85C218.752 102.598 218.051 99.1293 216.649 96.4439C215.247 93.7586 213.424 91.6607 211.18 90.1501C208.993 88.6396 206.525 87.6044 203.777 87.0452C201.029 86.486 198.28 86.206 195.532 86.206L186.698 86.206L186.698 127.326L195.532 127.326ZM287.795 114.738C287.795 118.318 287.178 121.563 285.944 124.472C284.711 127.326 283.028 129.759 280.897 131.773C278.765 133.787 276.241 135.353 273.325 136.473C270.409 137.535 267.239 138.067 263.818 138.067C260.397 138.067 257.228 137.535 254.311 136.473C251.395 135.353 248.843 133.787 246.656 131.773C244.524 129.759 242.841 127.326 241.608 124.472C240.43 121.563 239.841 118.318 239.841 114.738L239.841 77.1429L250.441 77.1429L250.441 114.318C250.441 116.052 250.666 117.787 251.115 119.521C251.563 121.2 252.292 122.71 253.302 124.053C254.367 125.395 255.742 126.486 257.424 127.326C259.163 128.165 261.294 128.584 263.818 128.584C266.342 128.584 268.445 128.165 270.128 127.326C271.866 126.486 273.241 125.395 274.25 124.053C275.316 122.71 276.073 121.2 276.522 119.521C276.971 117.787 277.195 116.052 277.195 114.318L277.195 77.1429L287.795 77.1429L287.795 114.738ZM343.394 91.0732C341.823 88.9471 339.776 87.4091 337.252 86.4578C334.728 85.4508 332.261 84.9473 329.849 84.9473C326.764 84.9473 323.96 85.5065 321.436 86.6256C318.912 87.7448 316.724 89.2827 314.874 91.2411C313.079 93.1994 311.677 95.4926 310.667 98.1223C309.714 100.752 309.237 103.605 309.237 106.682C309.237 109.926 309.714 112.892 310.667 115.577C311.621 118.262 312.967 120.584 314.705 122.542C316.5 124.444 318.632 125.927 321.099 126.99C323.567 128.053 326.343 128.584 329.428 128.584C332.625 128.584 335.458 127.969 337.925 126.738C340.393 125.451 342.384 123.773 343.899 121.703L352.396 127.661C349.76 130.962 346.535 133.535 342.721 135.382C338.907 137.172 334.448 138.067 329.344 138.067C324.689 138.067 320.399 137.312 316.472 135.801C312.602 134.235 309.265 132.081 306.461 129.34C303.657 126.542 301.469 123.242 299.898 119.437C298.328 115.577 297.543 111.326 297.543 106.682C297.543 101.927 298.357 97.647 299.983 93.8425C301.665 89.9823 303.937 86.7095 306.797 84.0242C309.714 81.3388 313.135 79.2691 317.061 77.8143C320.988 76.3595 325.25 75.6324 329.849 75.6324C331.756 75.6324 333.747 75.8282 335.822 76.2199C337.897 76.5555 339.888 77.1147 341.795 77.8982C343.702 78.6252 345.497 79.5483 347.18 80.6675C348.862 81.7866 350.293 83.1293 351.47 84.6955L343.394 91.0732ZM370.52 86.3739L352.264 86.3739L352.264 77.1429L399.376 77.143L399.376 86.3739L381.12 86.3739L381.12 136.556L370.52 136.556L370.52 86.3739Z" fill="white"/>
<path d="M263.347 8.74083L266.179 13.5469L266.742 10.0078L263.347 4.24554L259.982 9.95821L260.545 13.4972L263.347 8.74083Z" fill="white"/>
<path d="M264.668 34.5209L263.365 31.2173L263.924 34.7269C264.183 34.6849 264.432 34.6151 264.668 34.5209Z" fill="white"/>
<path fill-rule="evenodd" clip-rule="evenodd" d="M260.545 13.4972L259.982 9.95821L263.347 4.24554L266.742 10.0078L266.179 13.5469L268.668 17.7731L271.07 21.8492L272.39 24.0898L274.176 27.1222L275.496 29.3627L277.898 33.4389L280.388 37.6653L284.098 43.9632L279.503 43.9632L273.848 43.9632L268.393 43.9632L265.394 43.9632L261.337 43.9632L258.338 43.9632L252.883 43.9632L247.228 43.9632L242.596 43.9632L246.296 37.6832L248.793 33.4451L251.201 29.3576L252.525 27.1107L254.316 24.0699L255.64 21.8231L258.048 17.7356L260.545 13.4972ZM266.742 10.0078L268.335 -5.30986e-06L258.396 -6.16244e-06L259.982 9.95821L256.986 15.043L251.742 1.74737L243.135 6.61726L254.097 19.9469L252.509 22.6425L238.264 11.3911L233.294 19.826L250.36 26.2906L248.772 28.9862L231.511 26.3474L231.511 36.0872L245.883 33.89L242.887 38.9746L233.294 42.6084L238.264 51.0433L244.382 46.2108L251.035 46.2108L243.135 55.8172L251.742 60.6871L257.452 46.2108L260.979 46.2108L258.396 62.4345L268.335 62.4345L265.752 46.2108L269.279 46.2108L274.989 60.6871L283.596 55.8173L275.696 46.2108L282.349 46.2108L288.468 51.0434L293.437 42.6085L283.797 38.9567L280.808 33.8839L295.22 36.0871L295.22 26.3474L277.926 28.9913L276.341 26.302L293.437 19.8261L288.468 11.3912L274.197 22.6623L272.613 19.973L283.596 6.61732L274.989 1.74743L269.73 15.0805L266.742 10.0078ZM263.347 25.3448C263.04 25.3448 262.736 25.3549 262.436 25.3746C261.989 25.404 261.551 25.4546 261.12 25.5254C260.42 25.6406 259.743 25.8091 259.096 26.0254C258.569 26.2016 258.062 26.4096 257.578 26.6463C257.437 26.7155 257.298 26.7872 257.16 26.8612C256.472 27.2329 255.837 27.6652 255.266 28.1491C254.694 28.6335 254.187 29.1696 253.755 29.7481C253.46 30.1441 253.2 30.5601 252.979 30.993L252.804 31.3351L252.979 31.6773C253.161 32.0335 253.369 32.3783 253.602 32.7099C254.019 33.3043 254.514 33.8564 255.077 34.357L256.747 33.7245C256.226 33.3389 255.759 32.9087 255.356 32.4418C255.054 32.0924 254.788 31.7224 254.562 31.3351C254.834 30.8704 255.162 30.4305 255.541 30.0211C255.957 29.5719 256.434 29.1594 256.961 28.7914C257.263 28.5812 257.581 28.3854 257.914 28.2056C258.242 28.0283 258.585 27.8667 258.94 27.722C259.329 27.5636 259.734 27.4255 260.152 27.3095C260.65 27.1712 261.167 27.0643 261.699 26.9919C262.02 26.9482 262.347 26.917 262.678 26.8991C262.899 26.8872 263.122 26.8811 263.347 26.8811C263.584 26.8811 263.82 26.8879 264.053 26.9012C264.383 26.92 264.71 26.9521 265.03 26.9967C265.56 27.0705 266.076 27.1785 266.572 27.3178C266.988 27.4345 267.391 27.5731 267.778 27.7319C268.125 27.874 268.46 28.0323 268.781 28.2056C269.118 28.388 269.441 28.5867 269.746 28.8004C270.27 29.1675 270.744 29.5785 271.157 30.026C271.534 30.434 271.862 30.8723 272.132 31.3351C271.907 31.7205 271.642 32.0889 271.343 32.4368C270.942 32.902 270.478 33.3307 269.96 33.7153C269.593 33.9883 269.198 34.239 268.781 34.4647C268.52 34.6053 268.251 34.7361 267.973 34.8564C267.574 35.029 267.159 35.1799 266.729 35.3073C266.212 35.4605 265.673 35.5796 265.118 35.661C264.781 35.7104 264.438 35.746 264.09 35.7669C263.845 35.7817 263.597 35.7892 263.347 35.7892C263.11 35.7892 262.874 35.7824 262.641 35.7691C262.292 35.7491 261.948 35.7145 261.611 35.666C261.054 35.586 260.514 35.4682 259.995 35.3159C259.563 35.1893 259.145 35.0388 258.745 34.8666L257.395 35.9325C257.887 36.184 258.405 36.4054 258.944 36.5933C259.61 36.8252 260.309 37.0063 261.033 37.1303C261.479 37.2067 261.935 37.2614 262.398 37.2931C262.711 37.3146 263.028 37.3255 263.347 37.3255C263.679 37.3255 264.008 37.3137 264.332 37.2906C264.795 37.2577 265.25 37.2018 265.695 37.1244C266.418 36.9987 267.115 36.8164 267.778 36.5833C268.316 36.3947 268.831 36.1729 269.321 35.9211C269.392 35.8844 269.463 35.847 269.534 35.809C270.303 35.3934 271.007 34.9019 271.628 34.3473C272.188 33.8478 272.681 33.2973 273.096 32.7049C273.327 32.3748 273.534 32.0317 273.715 31.6773L273.89 31.3351L273.715 30.993C273.495 30.5619 273.237 30.1477 272.943 29.7531C272.513 29.1765 272.008 28.6421 271.44 28.1588C270.866 27.671 270.226 27.2353 269.534 26.8612C269.404 26.7911 269.272 26.7232 269.139 26.6575C268.657 26.4204 268.152 26.212 267.627 26.035C266.982 25.8177 266.307 25.6479 265.608 25.5311C265.179 25.4593 264.741 25.4076 264.295 25.3771C263.983 25.3557 263.666 25.3448 263.347 25.3448ZM266.855 31.3351C266.855 31.1157 266.834 30.9011 266.794 30.6931C266.748 30.452 266.676 30.2198 266.581 29.9994C266.485 29.7771 266.366 29.5667 266.227 29.3712C266.235 29.4266 266.239 29.4831 266.239 29.5406C266.239 29.7856 266.165 30.0137 266.038 30.2048C265.816 30.5391 265.432 30.7601 264.994 30.7601C264.885 30.7601 264.779 30.7463 264.678 30.7203C264.521 30.68 264.376 30.6106 264.25 30.5183C264.186 30.4709 264.126 30.4174 264.071 30.3588C263.976 30.2555 263.899 30.1361 263.843 30.0053C263.783 29.8621 263.75 29.7052 263.75 29.5406C263.75 29.0539 264.041 28.6338 264.462 28.4382C264.623 28.3631 264.804 28.3211 264.994 28.3211C265.005 28.3211 265.015 28.3212 265.025 28.3215L265.037 28.3218C264.893 28.2441 264.743 28.176 264.588 28.1185C264.364 28.0357 264.13 27.9746 263.888 27.9379C263.711 27.9112 263.531 27.8973 263.347 27.8973C263.176 27.8973 263.007 27.9093 262.843 27.9326C262.599 27.967 262.363 28.0259 262.139 28.1067C261.804 28.2269 261.494 28.3955 261.216 28.6039C261.021 28.7502 260.843 28.9161 260.683 29.0985C260.451 29.363 260.26 29.6624 260.119 29.9874C260.022 30.2098 259.949 30.4442 259.901 30.6876C259.86 30.8973 259.839 31.1138 259.839 31.3351C259.839 31.4764 259.848 31.6157 259.865 31.7525C259.896 32.0036 259.954 32.2464 260.038 32.4779C260.162 32.8237 260.341 33.1442 260.565 33.4293C260.722 33.6294 260.901 33.8121 261.098 33.974C261.383 34.2074 261.706 34.3973 262.057 34.5334C262.295 34.6256 262.546 34.693 262.806 34.7325C262.982 34.7593 263.163 34.7731 263.347 34.7731C263.544 34.7731 263.736 34.7573 263.924 34.7269L263.365 31.2173L264.668 34.5209C265.016 34.3822 265.336 34.1905 265.618 33.9559C265.812 33.7938 265.989 33.6111 266.143 33.4114C266.363 33.1274 266.539 32.8089 266.661 32.4657C266.743 32.2362 266.8 31.9957 266.83 31.747C266.847 31.6119 266.855 31.4745 266.855 31.3351Z" fill="white"/>
<path d="M257.16 35.809C257.238 35.851 257.316 35.8921 257.395 35.9325L258.745 34.8666C258.459 34.7435 258.182 34.6093 257.914 34.4647C257.501 34.2415 257.11 33.9939 256.747 33.7245L255.077 34.357C255.696 34.9076 256.395 35.3958 257.16 35.809Z" fill="white"/>
</g>
<defs>
<clipPath id="clip0_35_316">
<rect width="138.082" height="400" fill="white" transform="translate(400) rotate(90)"/>
</clipPath>
</defs>
</svg>
